#!OML:ASF I:\golf\golf\golf 2\Subject 1\2002-09-07\Subject1.ASF
:FULLY-SPECIFIED
:DEGREES
196
root -5.99266 17.6953 2.12531 -6.57824 50.5531 -19.5931
lowerback 0.345257 -7.20995 -13.2524
upperback 3.02923 -9.24445 -2.17923
thorax 4.76409 -4.93431 4.4933
lowerneck -7.24909 18.1902 4.01142
upperneck 25.5657 28.5082 -9.90382
head 11.6403 12.3355 -0.338403
rclavicle -2.34566e-014 3.18055e-015
rhumerus -9.98603 -8.48132 -92.0348
rradius 85.5429
rwrist -46.8979
rhand -63.2332 8.57575
rfingers 7.12502
rthumb -35.2241 -17.9277
lclavicle -2.34566e-014 3.18055e-015
lhumerus 85.5562 -64.161 29.6645
lradius 26.3003
lwrist 1.33686
lhand -3.93294 16.2974
lfingers 7.12502
lthumb -158.182 225.087
rfemur -29.3823 12.5133 27.332
rtibia 28.3944
rfoot -6.68002 18.4498
rtoes 17.2775
lfemur -7.89365 21.373 9.829
ltibia 35.2282
lfoot -4.17653 11.7538
ltoes -36.725
197
root -5.98284 17.6991 2.18319 -6.45362 49.908 -19.2218
lowerback 0.404275 -7.36311 -13.4433
upperback 2.94277 -9.45255 -2.33136
thorax 4.6828 -5.02903 4.42769
lowerneck -7.09435 18.5151 3.90589
upperneck 25.1899 28.8972 -9.89377
head 11.4789 12.5333 -0.293193
rclavicle 1.19271e-014 8.90555e-014
rhumerus -9.34119 -9.17246 -91.7238
rradius 86.9196
rwrist -45.0181
rhand -63.1477 9.25659
rfingers 7.12502
rthumb -35.143 -17.266
lclavicle 1.19271e-014 8.90555e-014
lhumerus 86.001 -63.5157 30.3352
lradius 26.4424
lwrist 0.554853
lhand -4.88322 14.6842
lfingers 7.12502
lthumb -159.094 223.578
rfemur -29.0878 12.8681 27.4928
rtibia 28.6128
rfoot -6.57185 18.834
rtoes 18.7063
lfemur -7.18023 21.2838 10.0922
ltibia 35.1969
lfoot -3.25193 11.6908
ltoes -37.9449
198
root -5.97305 17.7016 2.2388 -6.33924 49.2875 -18.9535
lowerback 0.39476 -7.54413 -13.4937
upperback 2.8206 -9.69422 -2.46966
thorax 4.585 -5.1344 4.29472
lowerneck -6.90941 18.8384 3.73261
upperneck 24.8177 29.2738 -9.82558
head 11.2916 12.7302 -0.232017
rclavicle 6.95746e-014 -2.22639e-014
rhumerus -8.8001 -9.89023 -91.4495
rradius 88.3496
rwrist -43.0671
rhand -63.1253 10.283
rfingers 7.12502
rthumb -35.1218 -16.2446
lclavicle 6.95746e-014 -2.22639e-014
lhumerus 87.0169 -62.8223 30.3196
lradius 26.6184
lwrist 0.234702
lhand -6.00573 12.9473
lfingers 7.12502
lthumb -160.173 221.956
rfemur -28.879 13.3003 27.6704
rtibia 28.8017
rfoot -6.46477 19.0157
rtoes 19.7479
lfemur -6.5709 21.1113 10.3799
ltibia 35.2013
lfoot -2.97084 11.6613
ltoes -36.7116
199
root -5.96284 17.7019 2.28652 -6.09001 48.6528 -18.583
lowerback 0.390842 -7.68439 -13.3834
upperback 2.64902 -9.88464 -2.73145
thorax 4.36886 -5.19866 3.966
lowerneck -6.60217 19.1298 3.69703
upperneck 24.3345 29.5713 -9.80166
head 11.0632 12.9143 -0.230669
rclavicle 1.13307e-014 1.90833e-014
rhumerus -8.31451 -10.5717 -91.1931
rradius 89.8707
rwrist -41.3518
rhand -63.3687 12.9738
rfingers 7.12502
rthumb -35.3526 -13.4992
lclavicle 1.13307e-014 1.90833e-014
lhumerus 88.455 -62.2067 29.6913
lradius 26.9628
lwrist 0.241042
lhand -7.20051 11.3042
lfingers 7.12502
lthumb -161.322 220.427
rfemur -28.7504 13.6298 27.7692
rtibia 28.9713
rfoot -6.19321 19.2486
rtoes 20.8014
lfemur -6.05564 20.958 10.547
ltibia 35.2605
lfoot -2.8204 11.7177
ltoes -35.0151
200
root -5.95427 17.7036 2.33303 -5.63185 48.0597 -18.0426
lowerback 0.336772 -7.80781 -13.4456
upperback 2.47562 -10.0415 -2.97855
thorax 4.20596 -5.25373 3.73717
lowerneck -6.30058 19.4095 3.71841
upperneck 23.7667 29.8656 -9.9125
head 10.84 13.0929 -0.278349
rclavicle 1.01579e-013 9.54166e-015
rhumerus -7.56492 -11.2611 -90.8389
rradius 91.2649
rwrist -39.5345
rhand -63.3585 14.3263
rfingers 7.12502
rthumb -35.343 -12.149
lclavicle 1.01579e-013 9.54166e-015
lhumerus 89.9394 -61.5373 29.1204
lradius 27.2956
lwrist 0.223115
lhand -8.17222 9.84672
lfingers 7.12502
lthumb -162.257 219.057
rfemur -28.7436 13.8715 27.7226
rtibia 29.1847
rfoot -5.91036 19.5619
rtoes 21.9262
lfemur -5.66991 20.8936 10.513
ltibia 35.3255
lfoot -2.32579 11.8279
ltoes -34.9989
201
root -5.94693 17.705 2.3814 -5.10584 47.5135 -17.401
lowerback 0.329505 -8.01697 -13.7605
upperback 2.29607 -10.3194 -3.13642
thorax 4.09349 -5.37856 3.72091
lowerneck -6.01964 19.755 3.71702
upperneck 23.1591 30.2875 -10.1569
head 10.6407 13.3142 -0.341591
rclavicle -1.0953e-013 -3.81667e-014
rhumerus -6.67198 -11.7788 -90.5008
rradius 92.5442
rwrist -37.6769
rhand -63.0237 15.0863
rfingers 7.12502
rthumb -35.0254 -11.4638
lclavicle -1.0953e-013 -3.81667e-014
lhumerus 90.8539 -60.7151 29.1674
lradius 27.5831
lwrist 0.0715861
lhand -9.07216 8.81066
lfingers 7.12502
lthumb -163.123 218.097
rfemur -28.7444 14.0913 27.5793
rtibia 29.4353
rfoot -5.90469 19.9218
rtoes 22.5052
lfemur -5.31743 20.7282 10.3415
ltibia 35.3949
lfoot -1.95989 12.0802
ltoes -34.8928
202
root -5.93827 17.7039 2.42623 -4.7576 46.9678 -16.9013
lowerback 0.417241 -8.21378 -14.0341
upperback 2.13375 -10.6026 -3.19891
thorax 3.95834 -5.50779 3.7933
lowerneck -5.91246 20.0805 3.57267
upperneck 22.6985 30.7056 -10.3132
head 10.4908 13.5139 -0.34171
rclavicle -1.49486e-013 2.54444e-014
rhumerus -5.73798 -12.216 -90.0281
rradius 93.826
rwrist -36.0005
rhand -62.6841 17.3708
rfingers 7.12502
rthumb -34.7032 -9.2541
lclavicle -1.49486e-013 2.54444e-014
lhumerus 91.4689 -59.8693 29.632
lradius 27.9394
lwrist -0.233542
lhand -10.1798 7.92616
lfingers 7.12502
lthumb -164.19 217.301
rfemur -28.6789 14.151 27.5646
rtibia 29.6971
rfoot -5.87956 20.4214
rtoes 23.1645
lfemur -4.90551 20.5184 10.262
ltibia 35.4669
lfoot -1.81215 12.3878
ltoes -33.9534
